# xmcd
#
# Track frame offsets:
#	150
#	23377
#	45823
#	66801
#	84769
#	106126
#	122375
#	143135
#	159125
#	175039
#	191473
#	213398
#	228472
#	246780
#	262578
#	293073
#
# Disc length: 4075
#
# Revision: 1
# Processed by: cddbd v1.5.1PL0 Copyright (c) Steve Scherf et al.
# Submitted via: CDex 1.51
# Normalized: r0:TDELIM( - )
#
DISCID=b50fe910
DTITLE=Various Artist - Enigma Lounge vol.2
DYEAR=2004
DGENRE=New Age
TTITLE0=Gregorian - Imagine (Lennon)
TTITLE1=Romana Angels - Vicerdo (Sarantis)
TTITLE2=Celtic Angels - Angels Sea
TTITLE3=Romana - For The Father (Sarantis)
TTITLE4=Elysia - Earthvoice
TTITLE5=Romana - Benedictus Sanctus (Sarantis)
TTITLE6=Iscaaro - Fold Your Hand And Pray
TTITLE7=Romana - Simeons Dream (Sarantis)
TTITLE8=Mohicans - A New Day
TTITLE9=Romana - Cloister secrets (Sarantis)
TTITLE10=Galileo - Ave Maria
TTITLE11=Romana - Incense (Sarantis)
TTITLE12=Cazwa Kain - Liwi concert (Levantis)
TTITLE13=Romana - Touch The Heavenly Light (Sarantis)
TTITLE14=Romana - Ancient Abbey (Sarantis)
TTITLE15=Cazwa Kain - Bygones (Levantis)
EXTD=YEAR: 2004
EXTT0=
EXTT1=
EXTT2=
EXTT3=
EXTT4=
EXTT5=
EXTT6=
EXTT7=
EXTT8=
EXTT9=
EXTT10=
EXTT11=
EXTT12=
EXTT13=
EXTT14=
EXTT15=
PLAYORDER=
